<svg width="28" height="34" viewBox="0 0 28 34" fill="none" xmlns="http://www.w3.org/2000/svg">
<path d="M14 0.333252V10.3333C14 11.2173 14.3512 12.0652 14.9763 12.6903C15.6014 13.3154 16.4493 13.6666 17.3333 13.6666H27.3333V30.3333C27.3333 31.2173 26.9821 32.0652 26.357 32.6903C25.7319 33.3154 24.8841 33.6666 24 33.6666H4C3.11595 33.6666 2.2681 33.3154 1.64298 32.6903C1.01786 32.0652 0.666668 31.2173 0.666668 30.3333V3.66659C0.666668 2.78253 1.01786 1.93468 1.64298 1.30956C2.2681 0.684441 3.11595 0.333252 4 0.333252H14ZM16.5 1.16659V10.3333C16.5 10.5543 16.5878 10.7662 16.7441 10.9225C16.9004 11.0788 17.1123 11.1666 17.3333 11.1666H26.5L16.5 1.16659Z" fill="white"/>
</svg>
