<svg width="54" height="54" viewBox="0 0 54 54" fill="none" xmlns="http://www.w3.org/2000/svg">
<path d="M22.1467 40.3546C22.4667 40.3546 22.7093 40.3439 22.8693 40.3226C23.057 40.2846 23.2263 40.184 23.3493 40.0373C23.5093 39.8693 23.5893 39.6266 23.5893 39.3066L23.5787 37.8213C23.5707 36.8746 23.568 36.1226 23.568 35.5706L23.0667 35.6586C22.6655 35.7218 22.2592 35.7468 21.8533 35.7333C21.3434 35.7242 20.835 35.6734 20.3333 35.5813C19.801 35.482 19.3 35.2571 18.872 34.9253C18.4234 34.5859 18.0886 34.1181 17.912 33.5839L17.6933 33.0799C17.5094 32.683 17.2784 32.3097 17.0053 31.9679C16.7602 31.6175 16.4334 31.332 16.0533 31.1359L15.9013 31.0293C15.7967 30.9522 15.7017 30.8626 15.6187 30.7626C15.538 30.6717 15.4715 30.5692 15.4213 30.4586C15.3787 30.3573 15.4133 30.2719 15.528 30.2079C15.7293 30.127 15.9464 30.0933 16.1627 30.1093L16.6 30.1759C16.8933 30.2319 17.2533 30.4079 17.6827 30.6986C18.1093 30.9919 18.464 31.3679 18.7413 31.8346C19.0773 32.4319 19.48 32.8879 19.9547 33.1999C20.3736 33.4954 20.8714 33.6589 21.384 33.6693C21.864 33.6693 22.28 33.6346 22.6293 33.5626C22.9694 33.4921 23.2997 33.3811 23.6133 33.2319C23.744 32.2586 24.0987 31.5066 24.68 30.9839C23.9253 30.9093 23.1774 30.7773 22.4427 30.5893C21.7253 30.3916 21.0355 30.1049 20.3893 29.7359C19.7126 29.3688 19.1146 28.8723 18.6293 28.2746C18.1653 27.6906 17.784 26.9279 17.4827 25.9813C17.1685 24.9178 17.0183 23.8127 17.0373 22.7039C17.0373 20.9439 17.6133 19.4426 18.7627 18.2053C18.224 16.8799 18.2747 15.3946 18.9147 13.7493C19.3387 13.6159 19.9653 13.7146 20.7947 14.0426C21.624 14.3706 22.2347 14.6506 22.6187 14.8853C23.0053 15.1173 23.312 15.3119 23.5467 15.4719C24.9125 15.0926 26.3238 14.9024 27.7413 14.9066C29.1813 14.9066 30.5813 15.0933 31.936 15.4746L32.7627 14.9493C33.3333 14.6026 34.0027 14.2799 34.7733 13.9893C35.5467 13.6959 36.136 13.6159 36.544 13.7493C37.2 15.3946 37.2587 16.8799 36.7173 18.2026C37.8693 19.4426 38.4453 20.9413 38.4453 22.7039C38.4453 23.9413 38.296 25.0373 37.9973 25.9919C37.6987 26.9466 37.312 27.7093 36.84 28.2853C36.3467 28.8771 35.7459 29.3702 35.0693 29.7386C34.4232 30.1077 33.7334 30.3943 33.016 30.5919C32.2804 30.7793 31.5315 30.9103 30.776 30.9839C31.5333 31.6373 31.912 32.6719 31.912 34.0853V39.3039C31.912 39.5519 31.9493 39.7519 32.0213 39.9066C32.0552 39.9803 32.1036 40.0464 32.1636 40.1009C32.2237 40.1554 32.2941 40.1973 32.3707 40.2239C32.5307 40.2799 32.6747 40.3173 32.7973 40.3306C32.9227 40.3466 33.0987 40.3546 33.3307 40.3546H22.1493H22.1467Z" fill="#C6C6C6"/>
<path d="M11 5.66658C9.58551 5.66658 8.22896 6.22849 7.22876 7.22868C6.22857 8.22888 5.66667 9.58543 5.66667 10.9999V42.9999C5.66667 44.4144 6.22857 45.771 7.22876 46.7712C8.22896 47.7713 9.58551 48.3332 11 48.3332H43C44.4145 48.3332 45.771 47.7713 46.7712 46.7712C47.7714 45.771 48.3333 44.4144 48.3333 42.9999V10.9999C48.3333 9.58543 47.7714 8.22888 46.7712 7.22868C45.771 6.22849 44.4145 5.66658 43 5.66658H11ZM11 0.333252H43C45.829 0.333252 48.5421 1.45706 50.5425 3.45745C52.5429 5.45783 53.6667 8.17094 53.6667 10.9999V42.9999C53.6667 45.8289 52.5429 48.542 50.5425 50.5424C48.5421 52.5428 45.829 53.6666 43 53.6666H11C8.17102 53.6666 5.45792 52.5428 3.45753 50.5424C1.45714 48.542 0.333334 45.8289 0.333334 42.9999V10.9999C0.333334 8.17094 1.45714 5.45783 3.45753 3.45745C5.45792 1.45706 8.17102 0.333252 11 0.333252V0.333252Z" fill="#C6C6C6"/>
</svg>
