<svg width="60" height="60" viewBox="0 0 60 60" fill="none" xmlns="http://www.w3.org/2000/svg">
<path fill-rule="evenodd" clip-rule="evenodd" d="M17.9067 0.842748C21.0347 0.698748 22.032 0.666748 30 0.666748C37.968 0.666748 38.9653 0.701415 42.0907 0.842748C45.216 0.984081 47.3493 1.48275 49.216 2.20541C51.1707 2.94408 52.944 4.09875 54.4107 5.59208C55.904 7.05608 57.056 8.82675 57.792 10.7841C58.5173 12.6507 59.0133 14.7841 59.1573 17.9041C59.3013 21.0374 59.3333 22.0347 59.3333 30.0001C59.3333 37.9681 59.2987 38.9654 59.1573 42.0934C59.016 45.2134 58.5173 47.3467 57.792 49.2134C57.056 51.171 55.9021 52.9446 54.4107 54.4107C52.944 55.9041 51.1707 57.0561 49.216 57.7921C47.3493 58.5174 45.216 59.0134 42.096 59.1574C38.9653 59.3014 37.968 59.3334 30 59.3334C22.032 59.3334 21.0347 59.2987 17.9067 59.1574C14.7867 59.0161 12.6533 58.5174 10.7867 57.7921C8.82912 57.056 7.05552 55.9021 5.58933 54.4107C4.09701 52.9459 2.94217 51.1731 2.20533 49.2161C1.48266 47.3494 0.986664 45.2161 0.842664 42.0961C0.698664 38.9627 0.666664 37.9654 0.666664 30.0001C0.666664 22.0321 0.701331 21.0347 0.842664 17.9094C0.983997 14.7841 1.48266 12.6507 2.20533 10.7841C2.94326 8.82697 4.09898 7.05425 5.592 5.58941C7.05611 4.09742 8.82792 2.9426 10.784 2.20541C12.6507 1.48275 14.784 0.986748 17.904 0.842748H17.9067ZM41.8533 6.12275C38.76 5.98141 37.832 5.95208 30 5.95208C22.168 5.95208 21.24 5.98141 18.1467 6.12275C15.2853 6.25341 13.7333 6.73075 12.6987 7.13341C11.3307 7.66675 10.352 8.29875 9.32533 9.32542C8.35212 10.2722 7.60315 11.4248 7.13333 12.6987C6.73066 13.7334 6.25333 15.2854 6.12266 18.1467C5.98133 21.2401 5.952 22.1681 5.952 30.0001C5.952 37.8321 5.98133 38.7601 6.12266 41.8534C6.25333 44.7147 6.73066 46.2668 7.13333 47.3014C7.60266 48.5734 8.352 49.7281 9.32533 50.6748C10.272 51.6481 11.4267 52.3974 12.6987 52.8668C13.7333 53.2694 15.2853 53.7468 18.1467 53.8774C21.24 54.0188 22.1653 54.0481 30 54.0481C37.8347 54.0481 38.76 54.0188 41.8533 53.8774C44.7147 53.7468 46.2667 53.2694 47.3013 52.8668C48.6693 52.3334 49.648 51.7014 50.6747 50.6748C51.648 49.7281 52.3973 48.5734 52.8667 47.3014C53.2693 46.2668 53.7467 44.7147 53.8773 41.8534C54.0187 38.7601 54.048 37.8321 54.048 30.0001C54.048 22.1681 54.0187 21.2401 53.8773 18.1467C53.7467 15.2854 53.2693 13.7334 52.8667 12.6987C52.3333 11.3307 51.7013 10.3521 50.6747 9.32542C49.7278 8.35227 48.5752 7.60331 47.3013 7.13341C46.2667 6.73075 44.7147 6.25341 41.8533 6.12275V6.12275ZM26.2533 39.0427C28.3458 39.9138 30.6757 40.0313 32.8451 39.3753C35.0146 38.7194 36.889 37.3305 38.1483 35.4461C39.4075 33.5616 39.9735 31.2984 39.7495 29.043C39.5254 26.7877 38.5253 24.68 36.92 23.0801C35.8966 22.0574 34.6592 21.2742 33.2969 20.7871C31.9345 20.3 30.4811 20.121 29.0413 20.2631C27.6015 20.4051 26.2111 20.8646 24.9701 21.6084C23.7292 22.3523 22.6686 23.3621 21.8648 24.565C21.061 25.768 20.5338 27.1342 20.3214 28.5653C20.1089 29.9964 20.2164 31.4569 20.6361 32.8415C21.0558 34.2261 21.7773 35.5004 22.7486 36.5727C23.7199 37.645 24.9169 38.4886 26.2533 39.0427ZM19.3387 19.3387C20.7387 17.9387 22.4009 16.8281 24.2301 16.0704C26.0594 15.3127 28.02 14.9227 30 14.9227C31.98 14.9227 33.9406 15.3127 35.7699 16.0704C37.5991 16.8281 39.2613 17.9387 40.6613 19.3387C42.0614 20.7388 43.172 22.4009 43.9297 24.2302C44.6874 26.0595 45.0774 28.0201 45.0774 30.0001C45.0774 31.9801 44.6874 33.9407 43.9297 35.77C43.172 37.5992 42.0614 39.2614 40.6613 40.6614C37.8338 43.489 33.9988 45.0775 30 45.0775C26.0012 45.0775 22.1662 43.489 19.3387 40.6614C16.5111 37.8339 14.9226 33.9989 14.9226 30.0001C14.9226 26.0013 16.5111 22.1663 19.3387 19.3387V19.3387ZM48.4213 17.1681C48.7683 16.8408 49.046 16.4472 49.2381 16.0107C49.4303 15.5741 49.5328 15.1035 49.5398 14.6266C49.5467 14.1497 49.4579 13.6762 49.2786 13.2342C49.0993 12.7923 48.8332 12.3908 48.4959 12.0535C48.1586 11.7163 47.7571 11.4501 47.3152 11.2708C46.8732 11.0915 46.3998 11.0027 45.9229 11.0096C45.4459 11.0166 44.9753 11.1192 44.5387 11.3113C44.1022 11.5034 43.7086 11.7811 43.3813 12.1281C42.7448 12.8028 42.3963 13.6991 42.4099 14.6266C42.4234 15.5541 42.7978 16.4398 43.4537 17.0957C44.1097 17.7516 44.9954 18.126 45.9229 18.1395C46.8503 18.1531 47.7466 17.8046 48.4213 17.1681V17.1681Z" fill="#C6C6C6"/>
</svg>
