<svg width="28" height="36" viewBox="0 0 28 36" fill="none" xmlns="http://www.w3.org/2000/svg">
<path d="M26.5962 2.48491C26.6219 2.90355 26.5224 3.32035 26.3103 3.68223C26.0983 4.0441 25.7833 4.33465 25.4055 4.51688C25.0277 4.69911 24.6043 4.76476 24.1891 4.70547C23.7739 4.64617 23.3857 4.46462 23.074 4.18395C22.7624 3.90327 22.5413 3.53616 22.439 3.12941C22.3367 2.72265 22.3578 2.29464 22.4996 1.89992C22.6414 1.50519 22.8975 1.16162 23.2353 0.912961C23.5731 0.664304 23.9772 0.52182 24.3962 0.503661C24.671 0.488497 24.946 0.527793 25.2055 0.619289C25.4649 0.710785 25.7038 0.852675 25.9082 1.0368C26.1127 1.22093 26.2787 1.44365 26.3968 1.69217C26.5149 1.94069 26.5827 2.2101 26.5962 2.48491ZM14.2737 26.8874C8.66499 26.8874 3.73624 24.8749 1.18749 21.9024C2.17642 24.5764 3.9608 26.8833 6.30045 28.5126C8.6401 30.1418 11.4227 31.0153 14.2737 31.0153C17.1248 31.0153 19.9074 30.1418 22.247 28.5126C24.5867 26.8833 26.3711 24.5764 27.36 21.9024C24.8175 24.8749 19.9075 26.8874 14.2737 26.8874ZM14.2737 7.55866C19.8825 7.55866 24.8112 9.57116 27.36 12.5437C26.3711 9.86963 24.5867 7.56274 22.247 5.93348C19.9074 4.30423 17.1248 3.43082 14.2737 3.43082C11.4227 3.43082 8.6401 4.30423 6.30045 5.93348C3.9608 7.56274 2.17642 9.86963 1.18749 12.5437C3.73749 9.56616 8.64124 7.55866 14.275 7.55866H14.2737ZM6.55374 32.6712C6.58844 33.3244 6.37893 33.9671 5.96596 34.4744C5.553 34.9817 4.9661 35.3173 4.31944 35.4158C3.67277 35.5144 3.01256 35.3689 2.46723 35.0076C1.9219 34.6464 1.53044 34.0952 1.36898 33.4613C1.20752 32.8274 1.28762 32.1561 1.59369 31.578C1.89976 30.9999 2.40992 30.5563 3.02493 30.3335C3.63995 30.1107 4.31586 30.1246 4.92119 30.3725C5.52651 30.6205 6.01798 31.0847 6.29999 31.6749C6.44871 31.9877 6.53491 32.3266 6.55374 32.6724V32.6712ZM1.82499 6.88366C1.52299 6.89177 1.22532 6.81044 0.969406 6.64988C0.713488 6.48933 0.510735 6.25671 0.386626 5.98127C0.262517 5.70582 0.22259 5.39984 0.271863 5.10177C0.321136 4.8037 0.45741 4.52685 0.66356 4.306C0.86971 4.08515 1.13654 3.93016 1.43051 3.8605C1.72449 3.79085 2.03249 3.80964 2.31582 3.91451C2.59914 4.01938 2.84515 4.20566 3.02293 4.44993C3.20071 4.6942 3.30232 4.98556 3.31499 5.28741C3.3265 5.69585 3.17653 6.09236 2.8976 6.39095C2.61867 6.68954 2.23327 6.86612 1.82499 6.88241V6.88366Z" fill="white"/>
</svg>
