<svg width="52" height="52" viewBox="0 0 52 52" fill="none" xmlns="http://www.w3.org/2000/svg">
<path d="M18 24V38C18 38.7956 17.6839 39.5587 17.1213 40.1213C16.5587 40.6839 15.7956 41 15 41C14.2044 41 13.4413 40.6839 12.8787 40.1213C12.3161 39.5587 12 38.7956 12 38V24C12 23.2044 12.3161 22.4413 12.8787 21.8787C13.4413 21.3161 14.2044 21 15 21C15.7956 21 16.5587 21.3161 17.1213 21.8787C17.6839 22.4413 18 23.2044 18 24ZM25 41C25.7956 41 26.5587 40.6839 27.1213 40.1213C27.6839 39.5587 28 38.7956 28 38V31C28 29.9391 28.4214 28.9217 29.1716 28.1716C29.9217 27.4214 30.9391 27 32 27C33.0609 27 34.0783 27.4214 34.8284 28.1716C35.5786 28.9217 36 29.9391 36 31V38C36 38.7956 36.3161 39.5587 36.8787 40.1213C37.4413 40.6839 38.2044 41 39 41C39.7956 41 40.5587 40.6839 41.1213 40.1213C41.6839 39.5587 42 38.7956 42 38V31C41.9995 29.2788 41.5547 27.5868 40.7086 26.0878C39.8626 24.5889 38.644 23.3337 37.1707 22.4437C35.6974 21.5537 34.0194 21.059 32.2989 21.0076C30.5784 20.9561 28.8738 21.3496 27.35 22.15C26.9637 21.6632 26.4359 21.3084 25.8393 21.1346C25.2427 20.9607 24.6068 20.9764 24.0195 21.1795C23.4323 21.3826 22.9225 21.763 22.5608 22.2682C22.199 22.7735 22.0031 23.3786 22 24V38C22 38.7956 22.3161 39.5587 22.8787 40.1213C23.4413 40.6839 24.2044 41 25 41V41ZM52 5V47C51.9934 48.3241 51.4645 49.592 50.5283 50.5283C49.592 51.4645 48.3241 51.9934 47 52H5C3.67594 51.9934 2.40799 51.4645 1.47173 50.5283C0.535465 49.592 0.00657112 48.3241 0 47V5C0.00657112 3.67594 0.535465 2.40799 1.47173 1.47173C2.40799 0.535465 3.67594 0.00657112 5 0H47C48.3241 0.00657112 49.592 0.535465 50.5283 1.47173C51.4645 2.40799 51.9934 3.67594 52 5V5ZM46 6H6V46H46V6ZM15 18C15.7911 18 16.5645 17.7654 17.2223 17.3259C17.8801 16.8864 18.3928 16.2616 18.6955 15.5307C18.9983 14.7998 19.0775 13.9956 18.9231 13.2196C18.7688 12.4437 18.3878 11.731 17.8284 11.1716C17.269 10.6122 16.5563 10.2312 15.7804 10.0769C15.0044 9.92252 14.2002 10.0017 13.4693 10.3045C12.7384 10.6072 12.1136 11.1199 11.6741 11.7777C11.2346 12.4355 11 13.2089 11 14C11 15.0609 11.4214 16.0783 12.1716 16.8284C12.9217 17.5786 13.9391 18 15 18Z" fill="#C6C6C6"/>
</svg>
