<svg width="39" height="24" viewBox="0 0 39 24" fill="none" xmlns="http://www.w3.org/2000/svg">
<path d="M13.0817 20.1274L13.2947 20.1903C13.5625 20.0705 14.1007 20.2556 14.3862 20.3461C13.8605 19.7633 13.0685 18.9075 12.4978 18.3679C12.3105 17.7147 12.3904 17.0574 12.4307 16.3905L12.4388 16.3354C12.2139 16.8692 11.9284 17.3881 11.775 17.95C11.5955 18.7081 12.5729 19.5259 12.952 19.9947L13.0817 20.1274ZM29.3752 23.3334C27.9081 23.2919 27.2628 23.2955 26.5156 22.0669L25.9333 22.0835C25.2555 22.0534 25.538 22.0671 25.0857 22.0446C24.3297 22.0151 24.4508 21.2968 24.3178 20.9172C24.105 19.6288 24.5993 18.3338 24.5838 17.0451C24.5783 16.5877 23.931 14.9685 23.6997 14.3896C22.9748 14.5261 22.2458 14.5521 21.5104 14.5888C19.8151 14.5847 18.1314 14.377 16.4598 14.1134C16.1341 15.4591 15.1658 17.3425 15.9661 18.71C16.9376 20.1247 17.6193 20.5166 18.676 20.6019C19.7327 20.6871 19.9713 21.8801 19.7156 22.3062C19.4894 22.6007 19.0916 22.6541 18.7538 22.7255L18.0778 22.7573C17.5461 22.7394 17.0707 22.5958 16.5967 22.3743C15.8052 21.9325 14.9878 21.014 14.3805 20.3546C14.5219 20.618 14.6062 21.132 14.478 21.3712C14.119 21.8799 12.566 21.8768 11.8547 21.5607C11.0469 21.2017 9.09459 18.6809 8.79276 16.793C9.59568 15.2744 10.7656 13.9517 11.3574 12.2982C10.0674 11.475 9.37641 10.1351 9.46611 8.61712L9.49848 8.44137C8.22912 8.67898 8.88738 8.59058 7.52188 8.69384C3.17321 8.68058 -0.651093 5.73206 1.50232 1.14949C1.64235 0.878131 1.77557 0.631416 2.01296 0.749239C2.20349 0.843785 2.17612 1.22303 2.08028 1.6436C0.849363 7.11916 6.86537 7.16109 10.5635 6.14785C10.9305 6.04723 11.6605 5.36987 12.1662 5.14529C12.9927 4.77825 13.8899 4.62927 14.7803 4.52206C16.9948 4.26966 19.6563 5.43621 21.0086 5.47435C22.361 5.51241 24.2848 5.1506 25.4656 5.22672C26.3225 5.26592 27.1639 5.42059 27.9906 5.64092C28.5258 3.03343 28.5636 1.11165 29.8322 0.666748C30.5767 0.784343 31.1505 1.79895 31.5751 2.34106L31.5769 2.34075C32.4417 2.30663 33.2648 2.52605 34.0831 2.76958C35.5646 2.55934 36.8078 1.72738 38.1161 1.08019C38.112 1.10058 38.0906 1.10748 38.0779 1.12121C36.7903 2.1625 36.6105 3.92332 36.762 5.55161C36.8183 6.39653 36.5796 7.31394 36.2844 8.17903C35.7321 9.58851 34.6654 11.0742 33.4273 10.998C32.9593 10.9832 32.6873 10.7182 32.3395 10.4352C32.2721 11.0084 32.0068 11.5197 31.7512 12.0265C31.1608 13.1503 29.6179 13.6455 28.1894 14.8455C26.7609 16.0455 28.6465 20.3311 29.1037 21.1119C29.5608 21.8928 30.8369 22.1785 30.3417 22.8833C30.1902 23.1161 29.9586 23.1994 29.711 23.2897L29.3752 23.3334Z" fill="#16212C"/>
</svg>
