<svg width="55" height="34" viewBox="0 0 55 34" fill="none" xmlns="http://www.w3.org/2000/svg">
<path d="M18.0613 28.9519L18.3746 29.0443C18.7684 28.8681 19.5598 29.1404 19.9797 29.2736C19.2066 28.4165 18.0419 27.1579 17.2026 26.3643C16.9272 25.4038 17.0447 24.4372 17.1039 23.4565L17.1159 23.3754C16.7851 24.1603 16.3653 24.9235 16.1397 25.7499C15.8757 26.8646 17.3131 28.0674 17.8705 28.7568L18.0613 28.9519ZM42.0223 33.6666C39.8648 33.6056 38.9158 33.6108 37.817 31.804L36.9607 31.8285C35.9639 31.7843 36.3793 31.8043 35.7142 31.7712C34.6025 31.728 34.7806 30.6715 34.585 30.1134C34.272 28.2187 34.999 26.3142 34.9761 24.4191C34.968 23.7464 34.0161 21.3652 33.6761 20.5139C32.6099 20.7146 31.538 20.753 30.4564 20.8068C27.9633 20.8008 25.4873 20.4954 23.0291 20.1077C22.5501 22.0867 21.1261 24.8564 22.3031 26.8675C23.7317 28.9479 24.7342 29.5242 26.2882 29.6496C27.8421 29.775 28.193 31.5294 27.817 32.156C27.4843 32.5891 26.8994 32.6677 26.4026 32.7726L25.4086 32.8193C24.6265 32.793 23.9274 32.5818 23.2304 32.2561C22.0665 31.6064 20.8644 30.2557 19.9713 29.286C20.1793 29.6733 20.3033 30.4292 20.1147 30.781C19.5867 31.529 17.3029 31.5245 16.2569 31.0596C15.0689 30.5317 12.1979 26.8247 11.754 24.0484C12.9348 21.8151 14.6552 19.87 15.5256 17.4383C13.6284 16.2278 12.6123 14.2573 12.7442 12.025L12.7919 11.7665C10.9251 12.116 11.8932 11.9859 9.88509 12.1378C3.48999 12.1183 -2.13399 7.78224 1.03279 1.04316C1.23872 0.644109 1.43463 0.281294 1.78373 0.454562C2.06392 0.593601 2.02367 1.15132 1.88274 1.7698C0.072562 9.8221 8.91962 9.88376 14.3581 8.39369C14.8977 8.24573 15.9713 7.24961 16.7149 6.91935C17.9305 6.37959 19.2498 6.16049 20.5592 6.00283C23.8158 5.63165 27.7298 7.34717 29.7185 7.40325C31.7073 7.45922 34.5364 6.92715 36.273 7.0391C37.5331 7.09674 38.7704 7.3242 39.9862 7.64821C40.7732 3.81367 40.8288 0.987524 42.6944 0.333252C43.7893 0.506186 44.633 1.99826 45.2575 2.79547L45.2601 2.79502C46.5319 2.74485 47.7422 3.06753 48.9456 3.42566C51.1243 3.11647 52.9526 1.893 54.8766 0.941253C54.8706 0.971246 54.8391 0.981392 54.8204 1.00157C52.9269 2.53289 52.6624 5.12233 52.8852 7.51687C52.9681 8.75941 52.617 10.1085 52.1829 11.3807C51.3706 13.4535 49.802 15.6383 47.9813 15.5262C47.293 15.5045 46.8931 15.1148 46.3816 14.6986C46.2824 15.5415 45.8924 16.2935 45.5164 17.0388C44.6482 18.6913 42.3793 19.4197 40.2784 21.1843C38.1778 22.949 40.9507 29.2514 41.623 30.3997C42.2952 31.5481 44.1718 31.9682 43.4436 33.0047C43.2209 33.347 42.8802 33.4695 42.5162 33.6022L42.0223 33.6666Z" fill="white"/>
</svg>
