<svg width="28" height="16" viewBox="0 0 28 16" fill="none" xmlns="http://www.w3.org/2000/svg">
<path fill-rule="evenodd" clip-rule="evenodd" d="M1.292 1.29196C1.38489 1.19883 1.49524 1.12494 1.61674 1.07453C1.73823 1.02412 1.86847 0.998169 2 0.998169C2.13154 0.998169 2.26178 1.02412 2.38327 1.07453C2.50476 1.12494 2.61511 1.19883 2.708 1.29196L14 12.586L25.292 1.29196C25.385 1.19898 25.4954 1.12523 25.6168 1.07491C25.7383 1.02459 25.8685 0.998693 26 0.998693C26.1315 0.998693 26.2617 1.02459 26.3832 1.07491C26.5046 1.12523 26.615 1.19898 26.708 1.29196C26.801 1.38493 26.8747 1.49531 26.925 1.61679C26.9754 1.73827 27.0013 1.86847 27.0013 1.99996C27.0013 2.13144 26.9754 2.26164 26.925 2.38312C26.8747 2.5046 26.801 2.61498 26.708 2.70796L14.708 14.708C14.6151 14.8011 14.5048 14.875 14.3833 14.9254C14.2618 14.9758 14.1315 15.0017 14 15.0017C13.8685 15.0017 13.7382 14.9758 13.6167 14.9254C13.4952 14.875 13.3849 14.8011 13.292 14.708L1.292 2.70796C1.19888 2.61506 1.12499 2.50471 1.07458 2.38322C1.02416 2.26173 0.998215 2.13149 0.998215 1.99996C0.998215 1.86842 1.02416 1.73818 1.07458 1.61669C1.12499 1.4952 1.19888 1.38485 1.292 1.29196Z" fill="black"/>
</svg>
