<svg width="52" height="20" viewBox="0 0 52 20" fill="none" xmlns="http://www.w3.org/2000/svg">
<path d="M3.80199 6.16093L4.53995 5.21934L13.9146 5.21487L13.311 6.15636L3.80199 6.16082V6.16093ZM12.3046 8.47706L12.6155 7.53557L0.737852 7.5437L0 8.48518L12.3046 8.47706ZM11.9633 10.8015L12.053 9.86003L6.65021 9.8644L6.12584 10.8059L11.9633 10.8015ZM46.4235 18.175C41.2255 21.0383 34.1239 19.8257 32.2253 13.6172C31.1032 15.8253 29.2711 17.6351 27.0878 18.667C21.915 21.1121 14.8917 18.9798 13.9884 12.2792C13.3269 5.85654 18.5251 1.88789 21.598 0.885871C26.4816 -0.635434 31.298 1.15217 32.9635 5.60111L27.7178 6.97607C27.1605 5.42511 24.1314 4.30822 21.8029 5.99162C18.1409 8.25108 18.2085 13.9371 22.633 14.7813C24.9301 15.0759 26.4731 13.9408 27.6299 12.195L21.9335 12.2071L23.7638 8.26043H32.3008C35.9983 -2.17075 50.4187 -1.71403 51.8842 7.65918C52.4051 10.9906 51.2678 15.5063 46.4235 18.175ZM41.686 5.26921C37.7392 6.11847 36.7555 9.60491 37.3647 11.8387C38.013 14.2158 40.5244 15.7746 43.7106 14.2839C48.8171 11.8948 47.4785 4.02283 41.686 5.26921Z" fill="white"/>
</svg>
